<mxfile host="app.diagrams.net" modified="2024-04-22T08:28:10.909Z" agent="Mozilla/5.0 (Windows NT 10.0; Win64; x64) AppleWebKit/537.36 (KHTML, like Gecko) Chrome/124.0.0.0 Safari/537.36" etag="dRlTI1cVCUc-i8HDWG8u" version="24.2.7" type="github" pages="2">
  <diagram id="R2lEEEUBdFMjLlhIrx00" name="Page-1">
    <mxGraphModel dx="1050" dy="1622" grid="0" gridSize="10" guides="1" tooltips="1" connect="1" arrows="1" fold="1" page="1" pageScale="1" pageWidth="850" pageHeight="1100" background="#0F0F0F" math="0" shadow="0" extFonts="Permanent Marker^https://fonts.googleapis.com/css?family=Permanent+Marker">
      <root>
        <mxCell id="0" />
        <mxCell id="1" parent="0" />
        <mxCell id="b83SJbbvAuQJgjBkf3r0-45" value="PROJECT" style="whiteSpace=wrap;html=1;align=center;" parent="1" vertex="1">
          <mxGeometry x="11" y="78" width="100" height="40" as="geometry" />
        </mxCell>
        <mxCell id="b83SJbbvAuQJgjBkf3r0-46" value="EQUIPMENT" style="whiteSpace=wrap;html=1;align=center;" parent="1" vertex="1">
          <mxGeometry x="143" y="401" width="100" height="40" as="geometry" />
        </mxCell>
        <mxCell id="b83SJbbvAuQJgjBkf3r0-48" value="ENTRY" style="whiteSpace=wrap;html=1;align=center;" parent="1" vertex="1">
          <mxGeometry x="397" y="158" width="100" height="40" as="geometry" />
        </mxCell>
        <mxCell id="b83SJbbvAuQJgjBkf3r0-49" value="OFFICE" style="whiteSpace=wrap;html=1;align=center;" parent="1" vertex="1">
          <mxGeometry x="278" y="319" width="100" height="40" as="geometry" />
        </mxCell>
        <mxCell id="b83SJbbvAuQJgjBkf3r0-50" value="CATEGORY" style="whiteSpace=wrap;html=1;align=center;" parent="1" vertex="1">
          <mxGeometry x="29" y="312" width="100" height="40" as="geometry" />
        </mxCell>
        <mxCell id="b83SJbbvAuQJgjBkf3r0-70" value="" style="edgeStyle=orthogonalEdgeStyle;rounded=0;orthogonalLoop=1;jettySize=auto;html=1;" parent="1" source="b83SJbbvAuQJgjBkf3r0-52" target="b83SJbbvAuQJgjBkf3r0-48" edge="1">
          <mxGeometry relative="1" as="geometry" />
        </mxCell>
        <mxCell id="b83SJbbvAuQJgjBkf3r0-52" value="SECTTION" style="whiteSpace=wrap;html=1;align=center;" parent="1" vertex="1">
          <mxGeometry x="524" y="260" width="100" height="40" as="geometry" />
        </mxCell>
        <mxCell id="b83SJbbvAuQJgjBkf3r0-53" value="ProjectEmployee" style="whiteSpace=wrap;html=1;align=center;" parent="1" vertex="1">
          <mxGeometry x="102" y="179" width="100" height="40" as="geometry" />
        </mxCell>
        <mxCell id="b83SJbbvAuQJgjBkf3r0-55" value="IDENTIFIER" style="whiteSpace=wrap;html=1;align=center;" parent="1" vertex="1">
          <mxGeometry x="667" y="164" width="100" height="40" as="geometry" />
        </mxCell>
        <mxCell id="b83SJbbvAuQJgjBkf3r0-56" value="DEPARTMENT" style="whiteSpace=wrap;html=1;align=center;" parent="1" vertex="1">
          <mxGeometry x="515" y="89" width="100" height="40" as="geometry" />
        </mxCell>
        <mxCell id="b83SJbbvAuQJgjBkf3r0-57" value="EMPLOYEE" style="whiteSpace=wrap;html=1;align=center;" parent="1" vertex="1">
          <mxGeometry x="214" y="78" width="100" height="40" as="geometry" />
        </mxCell>
        <mxCell id="b83SJbbvAuQJgjBkf3r0-58" style="edgeStyle=orthogonalEdgeStyle;rounded=0;orthogonalLoop=1;jettySize=auto;html=1;exitX=0.5;exitY=1;exitDx=0;exitDy=0;" parent="1" source="b83SJbbvAuQJgjBkf3r0-49" target="b83SJbbvAuQJgjBkf3r0-49" edge="1">
          <mxGeometry relative="1" as="geometry" />
        </mxCell>
        <mxCell id="b83SJbbvAuQJgjBkf3r0-60" value="&lt;span style=&quot;background-color: rgb(255, 255, 255); font-size: 18px;&quot;&gt;LOGICAL ERD&lt;/span&gt;" style="text;html=1;align=center;verticalAlign=middle;whiteSpace=wrap;rounded=0;" parent="1" vertex="1">
          <mxGeometry x="295" y="-19" width="186" height="77" as="geometry" />
        </mxCell>
        <mxCell id="b83SJbbvAuQJgjBkf3r0-61" value="" style="edgeStyle=orthogonalEdgeStyle;fontSize=12;html=1;endArrow=ERzeroToMany;startArrow=ERmandOne;rounded=0;exitX=0.422;exitY=1.04;exitDx=0;exitDy=0;exitPerimeter=0;entryX=0;entryY=0.5;entryDx=0;entryDy=0;strokeColor=#FFFFFF;" parent="1" source="b83SJbbvAuQJgjBkf3r0-45" target="b83SJbbvAuQJgjBkf3r0-53" edge="1">
          <mxGeometry width="100" height="100" relative="1" as="geometry">
            <mxPoint x="425" y="252" as="sourcePoint" />
            <mxPoint x="525" y="152" as="targetPoint" />
          </mxGeometry>
        </mxCell>
        <mxCell id="b83SJbbvAuQJgjBkf3r0-62" value="" style="edgeStyle=orthogonalEdgeStyle;fontSize=12;html=1;endArrow=ERzeroToMany;startArrow=ERmandOne;rounded=0;exitX=0.44;exitY=0.975;exitDx=0;exitDy=0;exitPerimeter=0;entryX=1;entryY=0.5;entryDx=0;entryDy=0;strokeColor=#FFFFFF;" parent="1" source="b83SJbbvAuQJgjBkf3r0-57" target="b83SJbbvAuQJgjBkf3r0-53" edge="1">
          <mxGeometry width="100" height="100" relative="1" as="geometry">
            <mxPoint x="425" y="252" as="sourcePoint" />
            <mxPoint x="525" y="152" as="targetPoint" />
          </mxGeometry>
        </mxCell>
        <mxCell id="b83SJbbvAuQJgjBkf3r0-63" value="" style="edgeStyle=orthogonalEdgeStyle;fontSize=12;html=1;endArrow=ERoneToMany;startArrow=ERmandOne;rounded=0;exitX=0;exitY=0.5;exitDx=0;exitDy=0;entryX=0.5;entryY=1;entryDx=0;entryDy=0;strokeColor=#FFFFFF;" parent="1" source="b83SJbbvAuQJgjBkf3r0-48" target="b83SJbbvAuQJgjBkf3r0-53" edge="1">
          <mxGeometry width="100" height="100" relative="1" as="geometry">
            <mxPoint x="425" y="252" as="sourcePoint" />
            <mxPoint x="525" y="152" as="targetPoint" />
          </mxGeometry>
        </mxCell>
        <mxCell id="b83SJbbvAuQJgjBkf3r0-64" value="" style="edgeStyle=orthogonalEdgeStyle;fontSize=12;html=1;endArrow=ERmany;startArrow=ERmandOne;rounded=0;entryX=0.5;entryY=0;entryDx=0;entryDy=0;strokeColor=#FCFCFC;endFill=0;" parent="1" source="b83SJbbvAuQJgjBkf3r0-56" target="b83SJbbvAuQJgjBkf3r0-55" edge="1">
          <mxGeometry width="100" height="100" relative="1" as="geometry">
            <mxPoint x="374" y="221" as="sourcePoint" />
            <mxPoint x="474" y="121" as="targetPoint" />
          </mxGeometry>
        </mxCell>
        <mxCell id="b83SJbbvAuQJgjBkf3r0-65" value="" style="edgeStyle=orthogonalEdgeStyle;fontSize=12;html=1;endArrow=ERmany;startArrow=ERmandOne;rounded=0;exitX=1;exitY=0.5;exitDx=0;exitDy=0;entryX=0.5;entryY=1;entryDx=0;entryDy=0;strokeColor=#FFFFFF;endFill=0;" parent="1" source="b83SJbbvAuQJgjBkf3r0-52" target="b83SJbbvAuQJgjBkf3r0-55" edge="1">
          <mxGeometry width="100" height="100" relative="1" as="geometry">
            <mxPoint x="374" y="221" as="sourcePoint" />
            <mxPoint x="474" y="121" as="targetPoint" />
          </mxGeometry>
        </mxCell>
        <mxCell id="b83SJbbvAuQJgjBkf3r0-66" value="" style="edgeStyle=orthogonalEdgeStyle;fontSize=12;html=1;endArrow=ERzeroToMany;startArrow=ERone;rounded=0;entryX=1;entryY=0.5;entryDx=0;entryDy=0;strokeColor=#FFFFFF;startFill=0;" parent="1" source="b83SJbbvAuQJgjBkf3r0-52" target="b83SJbbvAuQJgjBkf3r0-49" edge="1">
          <mxGeometry width="100" height="100" relative="1" as="geometry">
            <mxPoint x="374" y="221" as="sourcePoint" />
            <mxPoint x="474" y="121" as="targetPoint" />
          </mxGeometry>
        </mxCell>
        <mxCell id="b83SJbbvAuQJgjBkf3r0-68" value="" style="edgeStyle=orthogonalEdgeStyle;fontSize=12;html=1;endArrow=ERmany;startArrow=ERone;rounded=0;exitX=0.5;exitY=1;exitDx=0;exitDy=0;endFill=0;startFill=0;strokeColor=#FFFFFF;entryX=1;entryY=0.5;entryDx=0;entryDy=0;" parent="1" source="b83SJbbvAuQJgjBkf3r0-49" target="b83SJbbvAuQJgjBkf3r0-46" edge="1">
          <mxGeometry width="100" height="100" relative="1" as="geometry">
            <mxPoint x="374" y="325" as="sourcePoint" />
            <mxPoint x="474" y="225" as="targetPoint" />
          </mxGeometry>
        </mxCell>
        <mxCell id="b83SJbbvAuQJgjBkf3r0-71" value="" style="edgeStyle=orthogonalEdgeStyle;fontSize=12;html=1;endArrow=ERone;startArrow=ERone;rounded=0;entryX=0;entryY=0.5;entryDx=0;entryDy=0;exitX=0.426;exitY=0.99;exitDx=0;exitDy=0;exitPerimeter=0;strokeColor=#FFFFFF;endFill=0;startFill=0;" parent="1" source="b83SJbbvAuQJgjBkf3r0-50" target="b83SJbbvAuQJgjBkf3r0-46" edge="1">
          <mxGeometry width="100" height="100" relative="1" as="geometry">
            <mxPoint x="374" y="325" as="sourcePoint" />
            <mxPoint x="474" y="225" as="targetPoint" />
          </mxGeometry>
        </mxCell>
      </root>
    </mxGraphModel>
  </diagram>
  <diagram id="dy1WGtLx-XqiENn_mAXw" name="Page-2">
    <mxGraphModel dx="1500" dy="746" grid="1" gridSize="1" guides="1" tooltips="1" connect="1" arrows="1" fold="1" page="1" pageScale="1" pageWidth="3300" pageHeight="4681" background="#fdf2f2" math="0" shadow="0">
      <root>
        <mxCell id="0" />
        <mxCell id="1" parent="0" />
        <mxCell id="Su4CmLZAa60nnHafvAWY-1" value="PROJECT" style="shape=table;startSize=30;container=1;collapsible=1;childLayout=tableLayout;fixedRows=1;rowLines=0;fontStyle=1;align=center;resizeLast=1;html=1;strokeColor=#000000;" vertex="1" parent="1">
          <mxGeometry x="19" y="32" width="180" height="124" as="geometry" />
        </mxCell>
        <mxCell id="Su4CmLZAa60nnHafvAWY-2" value="" style="shape=tableRow;horizontal=0;startSize=0;swimlaneHead=0;swimlaneBody=0;fillColor=none;collapsible=0;dropTarget=0;points=[[0,0.5],[1,0.5]];portConstraint=eastwest;top=0;left=0;right=0;bottom=1;" vertex="1" parent="Su4CmLZAa60nnHafvAWY-1">
          <mxGeometry y="30" width="180" height="30" as="geometry" />
        </mxCell>
        <mxCell id="Su4CmLZAa60nnHafvAWY-3" value="PK" style="shape=partialRectangle;connectable=0;fillColor=none;top=0;left=0;bottom=0;right=0;fontStyle=1;overflow=hidden;whiteSpace=wrap;html=1;" vertex="1" parent="Su4CmLZAa60nnHafvAWY-2">
          <mxGeometry width="30" height="30" as="geometry">
            <mxRectangle width="30" height="30" as="alternateBounds" />
          </mxGeometry>
        </mxCell>
        <mxCell id="Su4CmLZAa60nnHafvAWY-4" value="Project#" style="shape=partialRectangle;connectable=0;fillColor=none;top=0;left=0;bottom=0;right=0;align=left;spacingLeft=6;fontStyle=5;overflow=hidden;whiteSpace=wrap;html=1;" vertex="1" parent="Su4CmLZAa60nnHafvAWY-2">
          <mxGeometry x="30" width="150" height="30" as="geometry">
            <mxRectangle width="150" height="30" as="alternateBounds" />
          </mxGeometry>
        </mxCell>
        <mxCell id="Su4CmLZAa60nnHafvAWY-5" value="" style="shape=tableRow;horizontal=0;startSize=0;swimlaneHead=0;swimlaneBody=0;fillColor=none;collapsible=0;dropTarget=0;points=[[0,0.5],[1,0.5]];portConstraint=eastwest;top=0;left=0;right=0;bottom=0;" vertex="1" parent="Su4CmLZAa60nnHafvAWY-1">
          <mxGeometry y="60" width="180" height="44" as="geometry" />
        </mxCell>
        <mxCell id="Su4CmLZAa60nnHafvAWY-6" value="" style="shape=partialRectangle;connectable=0;fillColor=none;top=0;left=0;bottom=0;right=0;editable=1;overflow=hidden;whiteSpace=wrap;html=1;" vertex="1" parent="Su4CmLZAa60nnHafvAWY-5">
          <mxGeometry width="30" height="44" as="geometry">
            <mxRectangle width="30" height="44" as="alternateBounds" />
          </mxGeometry>
        </mxCell>
        <mxCell id="Su4CmLZAa60nnHafvAWY-7" value="ProjectName" style="shape=partialRectangle;connectable=0;fillColor=none;top=0;left=0;bottom=0;right=0;align=left;spacingLeft=6;overflow=hidden;whiteSpace=wrap;html=1;" vertex="1" parent="Su4CmLZAa60nnHafvAWY-5">
          <mxGeometry x="30" width="150" height="44" as="geometry">
            <mxRectangle width="150" height="44" as="alternateBounds" />
          </mxGeometry>
        </mxCell>
        <mxCell id="Su4CmLZAa60nnHafvAWY-11" value="" style="shape=tableRow;horizontal=0;startSize=0;swimlaneHead=0;swimlaneBody=0;fillColor=none;collapsible=0;dropTarget=0;points=[[0,0.5],[1,0.5]];portConstraint=eastwest;top=0;left=0;right=0;bottom=0;" vertex="1" parent="Su4CmLZAa60nnHafvAWY-1">
          <mxGeometry y="104" width="180" height="20" as="geometry" />
        </mxCell>
        <mxCell id="Su4CmLZAa60nnHafvAWY-12" value="" style="shape=partialRectangle;connectable=0;fillColor=none;top=0;left=0;bottom=0;right=0;editable=1;overflow=hidden;whiteSpace=wrap;html=1;" vertex="1" parent="Su4CmLZAa60nnHafvAWY-11">
          <mxGeometry width="30" height="20" as="geometry">
            <mxRectangle width="30" height="20" as="alternateBounds" />
          </mxGeometry>
        </mxCell>
        <mxCell id="Su4CmLZAa60nnHafvAWY-13" value="" style="shape=partialRectangle;connectable=0;fillColor=none;top=0;left=0;bottom=0;right=0;align=left;spacingLeft=6;overflow=hidden;whiteSpace=wrap;html=1;" vertex="1" parent="Su4CmLZAa60nnHafvAWY-11">
          <mxGeometry x="30" width="150" height="20" as="geometry">
            <mxRectangle width="150" height="20" as="alternateBounds" />
          </mxGeometry>
        </mxCell>
        <mxCell id="_8jmgSorLe9WMJBgY1ia-1" value="EMPLOYEE" style="shape=table;startSize=30;container=1;collapsible=1;childLayout=tableLayout;fixedRows=1;rowLines=0;fontStyle=1;align=center;resizeLast=1;html=1;" vertex="1" parent="1">
          <mxGeometry x="251" y="28" width="180" height="150" as="geometry" />
        </mxCell>
        <mxCell id="_8jmgSorLe9WMJBgY1ia-2" value="" style="shape=tableRow;horizontal=0;startSize=0;swimlaneHead=0;swimlaneBody=0;fillColor=none;collapsible=0;dropTarget=0;points=[[0,0.5],[1,0.5]];portConstraint=eastwest;top=0;left=0;right=0;bottom=1;" vertex="1" parent="_8jmgSorLe9WMJBgY1ia-1">
          <mxGeometry y="30" width="180" height="30" as="geometry" />
        </mxCell>
        <mxCell id="_8jmgSorLe9WMJBgY1ia-3" value="PK" style="shape=partialRectangle;connectable=0;fillColor=none;top=0;left=0;bottom=0;right=0;fontStyle=1;overflow=hidden;whiteSpace=wrap;html=1;" vertex="1" parent="_8jmgSorLe9WMJBgY1ia-2">
          <mxGeometry width="30" height="30" as="geometry">
            <mxRectangle width="30" height="30" as="alternateBounds" />
          </mxGeometry>
        </mxCell>
        <mxCell id="_8jmgSorLe9WMJBgY1ia-4" value="Employee#" style="shape=partialRectangle;connectable=0;fillColor=none;top=0;left=0;bottom=0;right=0;align=left;spacingLeft=6;fontStyle=5;overflow=hidden;whiteSpace=wrap;html=1;" vertex="1" parent="_8jmgSorLe9WMJBgY1ia-2">
          <mxGeometry x="30" width="150" height="30" as="geometry">
            <mxRectangle width="150" height="30" as="alternateBounds" />
          </mxGeometry>
        </mxCell>
        <mxCell id="_8jmgSorLe9WMJBgY1ia-5" value="" style="shape=tableRow;horizontal=0;startSize=0;swimlaneHead=0;swimlaneBody=0;fillColor=none;collapsible=0;dropTarget=0;points=[[0,0.5],[1,0.5]];portConstraint=eastwest;top=0;left=0;right=0;bottom=0;" vertex="1" parent="_8jmgSorLe9WMJBgY1ia-1">
          <mxGeometry y="60" width="180" height="30" as="geometry" />
        </mxCell>
        <mxCell id="_8jmgSorLe9WMJBgY1ia-6" value="" style="shape=partialRectangle;connectable=0;fillColor=none;top=0;left=0;bottom=0;right=0;editable=1;overflow=hidden;whiteSpace=wrap;html=1;" vertex="1" parent="_8jmgSorLe9WMJBgY1ia-5">
          <mxGeometry width="30" height="30" as="geometry">
            <mxRectangle width="30" height="30" as="alternateBounds" />
          </mxGeometry>
        </mxCell>
        <mxCell id="_8jmgSorLe9WMJBgY1ia-7" value="EmployeeID" style="shape=partialRectangle;connectable=0;fillColor=none;top=0;left=0;bottom=0;right=0;align=left;spacingLeft=6;overflow=hidden;whiteSpace=wrap;html=1;" vertex="1" parent="_8jmgSorLe9WMJBgY1ia-5">
          <mxGeometry x="30" width="150" height="30" as="geometry">
            <mxRectangle width="150" height="30" as="alternateBounds" />
          </mxGeometry>
        </mxCell>
        <mxCell id="_8jmgSorLe9WMJBgY1ia-8" value="" style="shape=tableRow;horizontal=0;startSize=0;swimlaneHead=0;swimlaneBody=0;fillColor=none;collapsible=0;dropTarget=0;points=[[0,0.5],[1,0.5]];portConstraint=eastwest;top=0;left=0;right=0;bottom=0;" vertex="1" parent="_8jmgSorLe9WMJBgY1ia-1">
          <mxGeometry y="90" width="180" height="30" as="geometry" />
        </mxCell>
        <mxCell id="_8jmgSorLe9WMJBgY1ia-9" value="" style="shape=partialRectangle;connectable=0;fillColor=none;top=0;left=0;bottom=0;right=0;editable=1;overflow=hidden;whiteSpace=wrap;html=1;" vertex="1" parent="_8jmgSorLe9WMJBgY1ia-8">
          <mxGeometry width="30" height="30" as="geometry">
            <mxRectangle width="30" height="30" as="alternateBounds" />
          </mxGeometry>
        </mxCell>
        <mxCell id="_8jmgSorLe9WMJBgY1ia-10" value="EmployeeSurname" style="shape=partialRectangle;connectable=0;fillColor=none;top=0;left=0;bottom=0;right=0;align=left;spacingLeft=6;overflow=hidden;whiteSpace=wrap;html=1;" vertex="1" parent="_8jmgSorLe9WMJBgY1ia-8">
          <mxGeometry x="30" width="150" height="30" as="geometry">
            <mxRectangle width="150" height="30" as="alternateBounds" />
          </mxGeometry>
        </mxCell>
        <mxCell id="_8jmgSorLe9WMJBgY1ia-11" value="" style="shape=tableRow;horizontal=0;startSize=0;swimlaneHead=0;swimlaneBody=0;fillColor=none;collapsible=0;dropTarget=0;points=[[0,0.5],[1,0.5]];portConstraint=eastwest;top=0;left=0;right=0;bottom=0;" vertex="1" parent="_8jmgSorLe9WMJBgY1ia-1">
          <mxGeometry y="120" width="180" height="30" as="geometry" />
        </mxCell>
        <mxCell id="_8jmgSorLe9WMJBgY1ia-12" value="" style="shape=partialRectangle;connectable=0;fillColor=none;top=0;left=0;bottom=0;right=0;editable=1;overflow=hidden;whiteSpace=wrap;html=1;" vertex="1" parent="_8jmgSorLe9WMJBgY1ia-11">
          <mxGeometry width="30" height="30" as="geometry">
            <mxRectangle width="30" height="30" as="alternateBounds" />
          </mxGeometry>
        </mxCell>
        <mxCell id="_8jmgSorLe9WMJBgY1ia-13" value="EmployeeSalary" style="shape=partialRectangle;connectable=0;fillColor=none;top=0;left=0;bottom=0;right=0;align=left;spacingLeft=6;overflow=hidden;whiteSpace=wrap;html=1;" vertex="1" parent="_8jmgSorLe9WMJBgY1ia-11">
          <mxGeometry x="30" width="150" height="30" as="geometry">
            <mxRectangle width="150" height="30" as="alternateBounds" />
          </mxGeometry>
        </mxCell>
        <mxCell id="_8jmgSorLe9WMJBgY1ia-27" value="ProjectEmployee" style="shape=table;startSize=30;container=1;collapsible=1;childLayout=tableLayout;fixedRows=1;rowLines=0;fontStyle=1;align=center;resizeLast=1;html=1;whiteSpace=wrap;" vertex="1" parent="1">
          <mxGeometry x="140" y="255" width="180" height="118" as="geometry" />
        </mxCell>
        <mxCell id="_8jmgSorLe9WMJBgY1ia-28" value="" style="shape=tableRow;horizontal=0;startSize=0;swimlaneHead=0;swimlaneBody=0;fillColor=none;collapsible=0;dropTarget=0;points=[[0,0.5],[1,0.5]];portConstraint=eastwest;top=0;left=0;right=0;bottom=0;html=1;" vertex="1" parent="_8jmgSorLe9WMJBgY1ia-27">
          <mxGeometry y="30" width="180" height="24" as="geometry" />
        </mxCell>
        <mxCell id="_8jmgSorLe9WMJBgY1ia-29" value="PK,FK1" style="shape=partialRectangle;connectable=0;fillColor=none;top=0;left=0;bottom=0;right=0;fontStyle=1;overflow=hidden;html=1;whiteSpace=wrap;" vertex="1" parent="_8jmgSorLe9WMJBgY1ia-28">
          <mxGeometry width="60" height="24" as="geometry">
            <mxRectangle width="60" height="24" as="alternateBounds" />
          </mxGeometry>
        </mxCell>
        <mxCell id="_8jmgSorLe9WMJBgY1ia-30" value="Project#" style="shape=partialRectangle;connectable=0;fillColor=none;top=0;left=0;bottom=0;right=0;align=left;spacingLeft=6;fontStyle=5;overflow=hidden;html=1;whiteSpace=wrap;" vertex="1" parent="_8jmgSorLe9WMJBgY1ia-28">
          <mxGeometry x="60" width="120" height="24" as="geometry">
            <mxRectangle width="120" height="24" as="alternateBounds" />
          </mxGeometry>
        </mxCell>
        <mxCell id="_8jmgSorLe9WMJBgY1ia-41" value="" style="shape=tableRow;horizontal=0;startSize=0;swimlaneHead=0;swimlaneBody=0;fillColor=none;collapsible=0;dropTarget=0;points=[[0,0.5],[1,0.5]];portConstraint=eastwest;top=0;left=0;right=0;bottom=0;" vertex="1" parent="_8jmgSorLe9WMJBgY1ia-27">
          <mxGeometry y="54" width="180" height="30" as="geometry" />
        </mxCell>
        <mxCell id="_8jmgSorLe9WMJBgY1ia-42" value="PK, FK3" style="shape=partialRectangle;connectable=0;fillColor=none;top=0;left=0;bottom=0;right=0;editable=1;overflow=hidden;fontStyle=1" vertex="1" parent="_8jmgSorLe9WMJBgY1ia-41">
          <mxGeometry width="60" height="30" as="geometry">
            <mxRectangle width="60" height="30" as="alternateBounds" />
          </mxGeometry>
        </mxCell>
        <mxCell id="_8jmgSorLe9WMJBgY1ia-43" value="Entry#" style="shape=partialRectangle;connectable=0;fillColor=none;top=0;left=0;bottom=0;right=0;align=left;spacingLeft=6;overflow=hidden;fontStyle=5" vertex="1" parent="_8jmgSorLe9WMJBgY1ia-41">
          <mxGeometry x="60" width="120" height="30" as="geometry">
            <mxRectangle width="120" height="30" as="alternateBounds" />
          </mxGeometry>
        </mxCell>
        <mxCell id="_8jmgSorLe9WMJBgY1ia-31" value="" style="shape=tableRow;horizontal=0;startSize=0;swimlaneHead=0;swimlaneBody=0;fillColor=none;collapsible=0;dropTarget=0;points=[[0,0.5],[1,0.5]];portConstraint=eastwest;top=0;left=0;right=0;bottom=1;html=1;" vertex="1" parent="_8jmgSorLe9WMJBgY1ia-27">
          <mxGeometry y="84" width="180" height="34" as="geometry" />
        </mxCell>
        <mxCell id="_8jmgSorLe9WMJBgY1ia-32" value="PK,FK2" style="shape=partialRectangle;connectable=0;fillColor=none;top=0;left=0;bottom=0;right=0;fontStyle=1;overflow=hidden;html=1;whiteSpace=wrap;" vertex="1" parent="_8jmgSorLe9WMJBgY1ia-31">
          <mxGeometry width="60" height="34" as="geometry">
            <mxRectangle width="60" height="34" as="alternateBounds" />
          </mxGeometry>
        </mxCell>
        <mxCell id="_8jmgSorLe9WMJBgY1ia-33" value="Employee#" style="shape=partialRectangle;connectable=0;fillColor=none;top=0;left=0;bottom=0;right=0;align=left;spacingLeft=6;fontStyle=5;overflow=hidden;html=1;whiteSpace=wrap;" vertex="1" parent="_8jmgSorLe9WMJBgY1ia-31">
          <mxGeometry x="60" width="120" height="34" as="geometry">
            <mxRectangle width="120" height="34" as="alternateBounds" />
          </mxGeometry>
        </mxCell>
        <mxCell id="_8jmgSorLe9WMJBgY1ia-45" value="" style="edgeStyle=orthogonalEdgeStyle;fontSize=12;html=1;endArrow=ERoneToMany;startArrow=ERmandOne;rounded=0;exitX=0.408;exitY=1.02;exitDx=0;exitDy=0;exitPerimeter=0;entryX=-0.013;entryY=0.113;entryDx=0;entryDy=0;entryPerimeter=0;" edge="1" parent="1" source="Su4CmLZAa60nnHafvAWY-11" target="_8jmgSorLe9WMJBgY1ia-31">
          <mxGeometry width="100" height="100" relative="1" as="geometry">
            <mxPoint x="373" y="310" as="sourcePoint" />
            <mxPoint x="473" y="210" as="targetPoint" />
          </mxGeometry>
        </mxCell>
        <mxCell id="_8jmgSorLe9WMJBgY1ia-47" value="" style="edgeStyle=orthogonalEdgeStyle;fontSize=12;html=1;endArrow=ERmandOne;startArrow=ERmany;rounded=0;exitX=1.011;exitY=0.113;exitDx=0;exitDy=0;exitPerimeter=0;entryX=1;entryY=0.5;entryDx=0;entryDy=0;startFill=0;endFill=0;" edge="1" parent="1" source="_8jmgSorLe9WMJBgY1ia-41" target="_8jmgSorLe9WMJBgY1ia-11">
          <mxGeometry width="100" height="100" relative="1" as="geometry">
            <mxPoint x="373" y="310" as="sourcePoint" />
            <mxPoint x="392" y="199" as="targetPoint" />
          </mxGeometry>
        </mxCell>
        <mxCell id="_8jmgSorLe9WMJBgY1ia-48" value="ENTRY" style="shape=table;startSize=30;container=1;collapsible=1;childLayout=tableLayout;fixedRows=1;rowLines=0;fontStyle=1;align=center;resizeLast=1;html=1;whiteSpace=wrap;" vertex="1" parent="1">
          <mxGeometry x="342" y="432" width="180" height="91" as="geometry" />
        </mxCell>
        <mxCell id="_8jmgSorLe9WMJBgY1ia-49" value="" style="shape=tableRow;horizontal=0;startSize=0;swimlaneHead=0;swimlaneBody=0;fillColor=none;collapsible=0;dropTarget=0;points=[[0,0.5],[1,0.5]];portConstraint=eastwest;top=0;left=0;right=0;bottom=0;html=1;" vertex="1" parent="_8jmgSorLe9WMJBgY1ia-48">
          <mxGeometry y="30" width="180" height="30" as="geometry" />
        </mxCell>
        <mxCell id="_8jmgSorLe9WMJBgY1ia-50" value="PK,FK1" style="shape=partialRectangle;connectable=0;fillColor=none;top=0;left=0;bottom=0;right=0;fontStyle=1;overflow=hidden;html=1;whiteSpace=wrap;" vertex="1" parent="_8jmgSorLe9WMJBgY1ia-49">
          <mxGeometry width="60" height="30" as="geometry">
            <mxRectangle width="60" height="30" as="alternateBounds" />
          </mxGeometry>
        </mxCell>
        <mxCell id="_8jmgSorLe9WMJBgY1ia-51" value="StartDateID" style="shape=partialRectangle;connectable=0;fillColor=none;top=0;left=0;bottom=0;right=0;align=left;spacingLeft=6;fontStyle=5;overflow=hidden;html=1;whiteSpace=wrap;" vertex="1" parent="_8jmgSorLe9WMJBgY1ia-49">
          <mxGeometry x="60" width="120" height="30" as="geometry">
            <mxRectangle width="120" height="30" as="alternateBounds" />
          </mxGeometry>
        </mxCell>
        <mxCell id="_8jmgSorLe9WMJBgY1ia-88" value="" style="shape=tableRow;horizontal=0;startSize=0;swimlaneHead=0;swimlaneBody=0;fillColor=none;collapsible=0;dropTarget=0;points=[[0,0.5],[1,0.5]];portConstraint=eastwest;top=0;left=0;right=0;bottom=1;html=1;" vertex="1" parent="_8jmgSorLe9WMJBgY1ia-48">
          <mxGeometry y="60" width="180" height="31" as="geometry" />
        </mxCell>
        <mxCell id="_8jmgSorLe9WMJBgY1ia-89" value="PK,FK2" style="shape=partialRectangle;connectable=0;fillColor=none;top=0;left=0;bottom=0;right=0;fontStyle=1;overflow=hidden;html=1;whiteSpace=wrap;" vertex="1" parent="_8jmgSorLe9WMJBgY1ia-88">
          <mxGeometry width="60" height="31" as="geometry">
            <mxRectangle width="60" height="31" as="alternateBounds" />
          </mxGeometry>
        </mxCell>
        <mxCell id="_8jmgSorLe9WMJBgY1ia-90" value="EndTimeID" style="shape=partialRectangle;connectable=0;fillColor=none;top=0;left=0;bottom=0;right=0;align=left;spacingLeft=6;fontStyle=5;overflow=hidden;html=1;whiteSpace=wrap;" vertex="1" parent="_8jmgSorLe9WMJBgY1ia-88">
          <mxGeometry x="60" width="120" height="31" as="geometry">
            <mxRectangle width="120" height="31" as="alternateBounds" />
          </mxGeometry>
        </mxCell>
        <mxCell id="_8jmgSorLe9WMJBgY1ia-61" value="START" style="shape=table;startSize=30;container=1;collapsible=1;childLayout=tableLayout;fixedRows=1;rowLines=0;fontStyle=1;align=center;resizeLast=1;html=1;" vertex="1" parent="1">
          <mxGeometry x="54" y="579" width="182" height="60" as="geometry" />
        </mxCell>
        <mxCell id="_8jmgSorLe9WMJBgY1ia-62" value="" style="shape=tableRow;horizontal=0;startSize=0;swimlaneHead=0;swimlaneBody=0;fillColor=none;collapsible=0;dropTarget=0;points=[[0,0.5],[1,0.5]];portConstraint=eastwest;top=0;left=0;right=0;bottom=1;" vertex="1" parent="_8jmgSorLe9WMJBgY1ia-61">
          <mxGeometry y="30" width="182" height="30" as="geometry" />
        </mxCell>
        <mxCell id="_8jmgSorLe9WMJBgY1ia-63" value="PK" style="shape=partialRectangle;connectable=0;fillColor=none;top=0;left=0;bottom=0;right=0;fontStyle=1;overflow=hidden;whiteSpace=wrap;html=1;" vertex="1" parent="_8jmgSorLe9WMJBgY1ia-62">
          <mxGeometry width="30" height="30" as="geometry">
            <mxRectangle width="30" height="30" as="alternateBounds" />
          </mxGeometry>
        </mxCell>
        <mxCell id="_8jmgSorLe9WMJBgY1ia-64" value="StartDateID" style="shape=partialRectangle;connectable=0;fillColor=none;top=0;left=0;bottom=0;right=0;align=left;spacingLeft=6;fontStyle=5;overflow=hidden;whiteSpace=wrap;html=1;" vertex="1" parent="_8jmgSorLe9WMJBgY1ia-62">
          <mxGeometry x="30" width="152" height="30" as="geometry">
            <mxRectangle width="152" height="30" as="alternateBounds" />
          </mxGeometry>
        </mxCell>
        <mxCell id="_8jmgSorLe9WMJBgY1ia-74" value="END" style="shape=table;startSize=30;container=1;collapsible=1;childLayout=tableLayout;fixedRows=1;rowLines=0;fontStyle=1;align=center;resizeLast=1;html=1;" vertex="1" parent="1">
          <mxGeometry x="354" y="597" width="180" height="60" as="geometry" />
        </mxCell>
        <mxCell id="_8jmgSorLe9WMJBgY1ia-75" value="" style="shape=tableRow;horizontal=0;startSize=0;swimlaneHead=0;swimlaneBody=0;fillColor=none;collapsible=0;dropTarget=0;points=[[0,0.5],[1,0.5]];portConstraint=eastwest;top=0;left=0;right=0;bottom=1;" vertex="1" parent="_8jmgSorLe9WMJBgY1ia-74">
          <mxGeometry y="30" width="180" height="30" as="geometry" />
        </mxCell>
        <mxCell id="_8jmgSorLe9WMJBgY1ia-76" value="PK" style="shape=partialRectangle;connectable=0;fillColor=none;top=0;left=0;bottom=0;right=0;fontStyle=1;overflow=hidden;whiteSpace=wrap;html=1;" vertex="1" parent="_8jmgSorLe9WMJBgY1ia-75">
          <mxGeometry width="30" height="30" as="geometry">
            <mxRectangle width="30" height="30" as="alternateBounds" />
          </mxGeometry>
        </mxCell>
        <mxCell id="_8jmgSorLe9WMJBgY1ia-77" value="EndTimeID" style="shape=partialRectangle;connectable=0;fillColor=none;top=0;left=0;bottom=0;right=0;align=left;spacingLeft=6;fontStyle=5;overflow=hidden;whiteSpace=wrap;html=1;" vertex="1" parent="_8jmgSorLe9WMJBgY1ia-75">
          <mxGeometry x="30" width="150" height="30" as="geometry">
            <mxRectangle width="150" height="30" as="alternateBounds" />
          </mxGeometry>
        </mxCell>
        <mxCell id="_8jmgSorLe9WMJBgY1ia-87" value="" style="fontSize=12;html=1;endArrow=ERoneToMany;startArrow=ERmandOne;rounded=0;exitX=0;exitY=0.853;exitDx=0;exitDy=0;exitPerimeter=0;entryX=1;entryY=0.5;entryDx=0;entryDy=0;edgeStyle=orthogonalEdgeStyle;" edge="1" parent="1" source="_8jmgSorLe9WMJBgY1ia-49" target="_8jmgSorLe9WMJBgY1ia-31">
          <mxGeometry width="100" height="100" relative="1" as="geometry">
            <mxPoint x="337" y="506" as="sourcePoint" />
            <mxPoint x="230" y="378" as="targetPoint" />
          </mxGeometry>
        </mxCell>
        <mxCell id="_8jmgSorLe9WMJBgY1ia-91" value="" style="edgeStyle=entityRelationEdgeStyle;fontSize=12;html=1;endArrow=ERone;endFill=1;rounded=0;exitX=1;exitY=0.5;exitDx=0;exitDy=0;entryX=0;entryY=0.5;entryDx=0;entryDy=0;startArrow=ERone;startFill=0;" edge="1" parent="1" source="_8jmgSorLe9WMJBgY1ia-62" target="_8jmgSorLe9WMJBgY1ia-88">
          <mxGeometry width="100" height="100" relative="1" as="geometry">
            <mxPoint x="242.72000000000003" y="648.4000000000001" as="sourcePoint" />
            <mxPoint x="343" y="532" as="targetPoint" />
          </mxGeometry>
        </mxCell>
        <mxCell id="_8jmgSorLe9WMJBgY1ia-92" value="" style="edgeStyle=orthogonalEdgeStyle;fontSize=12;html=1;endArrow=ERone;endFill=1;rounded=0;exitX=1;exitY=0.5;exitDx=0;exitDy=0;entryX=1;entryY=0.5;entryDx=0;entryDy=0;startArrow=ERone;startFill=0;" edge="1" parent="1" source="_8jmgSorLe9WMJBgY1ia-75" target="_8jmgSorLe9WMJBgY1ia-49">
          <mxGeometry width="100" height="100" relative="1" as="geometry">
            <mxPoint x="373" y="594" as="sourcePoint" />
            <mxPoint x="473" y="494" as="targetPoint" />
          </mxGeometry>
        </mxCell>
        <mxCell id="_8jmgSorLe9WMJBgY1ia-93" value="DEPARTMENT" style="shape=table;startSize=35;container=1;collapsible=1;childLayout=tableLayout;fixedRows=1;rowLines=0;fontStyle=1;align=center;resizeLast=1;html=1;" vertex="1" parent="1">
          <mxGeometry x="541" y="24" width="180" height="125" as="geometry" />
        </mxCell>
        <mxCell id="_8jmgSorLe9WMJBgY1ia-94" value="" style="shape=tableRow;horizontal=0;startSize=0;swimlaneHead=0;swimlaneBody=0;fillColor=none;collapsible=0;dropTarget=0;points=[[0,0.5],[1,0.5]];portConstraint=eastwest;top=0;left=0;right=0;bottom=1;" vertex="1" parent="_8jmgSorLe9WMJBgY1ia-93">
          <mxGeometry y="35" width="180" height="30" as="geometry" />
        </mxCell>
        <mxCell id="_8jmgSorLe9WMJBgY1ia-95" value="PK" style="shape=partialRectangle;connectable=0;fillColor=none;top=0;left=0;bottom=0;right=0;fontStyle=1;overflow=hidden;whiteSpace=wrap;html=1;" vertex="1" parent="_8jmgSorLe9WMJBgY1ia-94">
          <mxGeometry width="30" height="30" as="geometry">
            <mxRectangle width="30" height="30" as="alternateBounds" />
          </mxGeometry>
        </mxCell>
        <mxCell id="_8jmgSorLe9WMJBgY1ia-96" value="DepartmentID" style="shape=partialRectangle;connectable=0;fillColor=none;top=0;left=0;bottom=0;right=0;align=left;spacingLeft=6;fontStyle=5;overflow=hidden;whiteSpace=wrap;html=1;" vertex="1" parent="_8jmgSorLe9WMJBgY1ia-94">
          <mxGeometry x="30" width="150" height="30" as="geometry">
            <mxRectangle width="150" height="30" as="alternateBounds" />
          </mxGeometry>
        </mxCell>
        <mxCell id="_8jmgSorLe9WMJBgY1ia-97" value="" style="shape=tableRow;horizontal=0;startSize=0;swimlaneHead=0;swimlaneBody=0;fillColor=none;collapsible=0;dropTarget=0;points=[[0,0.5],[1,0.5]];portConstraint=eastwest;top=0;left=0;right=0;bottom=0;" vertex="1" parent="_8jmgSorLe9WMJBgY1ia-93">
          <mxGeometry y="65" width="180" height="30" as="geometry" />
        </mxCell>
        <mxCell id="_8jmgSorLe9WMJBgY1ia-98" value="" style="shape=partialRectangle;connectable=0;fillColor=none;top=0;left=0;bottom=0;right=0;editable=1;overflow=hidden;whiteSpace=wrap;html=1;" vertex="1" parent="_8jmgSorLe9WMJBgY1ia-97">
          <mxGeometry width="30" height="30" as="geometry">
            <mxRectangle width="30" height="30" as="alternateBounds" />
          </mxGeometry>
        </mxCell>
        <mxCell id="_8jmgSorLe9WMJBgY1ia-99" value="DepartName" style="shape=partialRectangle;connectable=0;fillColor=none;top=0;left=0;bottom=0;right=0;align=left;spacingLeft=6;overflow=hidden;whiteSpace=wrap;html=1;" vertex="1" parent="_8jmgSorLe9WMJBgY1ia-97">
          <mxGeometry x="30" width="150" height="30" as="geometry">
            <mxRectangle width="150" height="30" as="alternateBounds" />
          </mxGeometry>
        </mxCell>
        <mxCell id="_8jmgSorLe9WMJBgY1ia-100" value="" style="shape=tableRow;horizontal=0;startSize=0;swimlaneHead=0;swimlaneBody=0;fillColor=none;collapsible=0;dropTarget=0;points=[[0,0.5],[1,0.5]];portConstraint=eastwest;top=0;left=0;right=0;bottom=0;" vertex="1" parent="_8jmgSorLe9WMJBgY1ia-93">
          <mxGeometry y="95" width="180" height="30" as="geometry" />
        </mxCell>
        <mxCell id="_8jmgSorLe9WMJBgY1ia-101" value="" style="shape=partialRectangle;connectable=0;fillColor=none;top=0;left=0;bottom=0;right=0;editable=1;overflow=hidden;whiteSpace=wrap;html=1;" vertex="1" parent="_8jmgSorLe9WMJBgY1ia-100">
          <mxGeometry width="30" height="30" as="geometry">
            <mxRectangle width="30" height="30" as="alternateBounds" />
          </mxGeometry>
        </mxCell>
        <mxCell id="_8jmgSorLe9WMJBgY1ia-102" value="TypeDepart" style="shape=partialRectangle;connectable=0;fillColor=none;top=0;left=0;bottom=0;right=0;align=left;spacingLeft=6;overflow=hidden;whiteSpace=wrap;html=1;" vertex="1" parent="_8jmgSorLe9WMJBgY1ia-100">
          <mxGeometry x="30" width="150" height="30" as="geometry">
            <mxRectangle width="150" height="30" as="alternateBounds" />
          </mxGeometry>
        </mxCell>
        <mxCell id="_8jmgSorLe9WMJBgY1ia-106" value="SECTION" style="shape=table;startSize=30;container=1;collapsible=1;childLayout=tableLayout;fixedRows=1;rowLines=0;fontStyle=1;align=center;resizeLast=1;html=1;" vertex="1" parent="1">
          <mxGeometry x="661" y="240" width="180" height="90" as="geometry" />
        </mxCell>
        <mxCell id="_8jmgSorLe9WMJBgY1ia-107" value="" style="shape=tableRow;horizontal=0;startSize=0;swimlaneHead=0;swimlaneBody=0;fillColor=none;collapsible=0;dropTarget=0;points=[[0,0.5],[1,0.5]];portConstraint=eastwest;top=0;left=0;right=0;bottom=1;" vertex="1" parent="_8jmgSorLe9WMJBgY1ia-106">
          <mxGeometry y="30" width="180" height="30" as="geometry" />
        </mxCell>
        <mxCell id="_8jmgSorLe9WMJBgY1ia-108" value="PK" style="shape=partialRectangle;connectable=0;fillColor=none;top=0;left=0;bottom=0;right=0;fontStyle=1;overflow=hidden;whiteSpace=wrap;html=1;" vertex="1" parent="_8jmgSorLe9WMJBgY1ia-107">
          <mxGeometry width="30" height="30" as="geometry">
            <mxRectangle width="30" height="30" as="alternateBounds" />
          </mxGeometry>
        </mxCell>
        <mxCell id="_8jmgSorLe9WMJBgY1ia-109" value="SectionID" style="shape=partialRectangle;connectable=0;fillColor=none;top=0;left=0;bottom=0;right=0;align=left;spacingLeft=6;fontStyle=5;overflow=hidden;whiteSpace=wrap;html=1;" vertex="1" parent="_8jmgSorLe9WMJBgY1ia-107">
          <mxGeometry x="30" width="150" height="30" as="geometry">
            <mxRectangle width="150" height="30" as="alternateBounds" />
          </mxGeometry>
        </mxCell>
        <mxCell id="_8jmgSorLe9WMJBgY1ia-110" value="" style="shape=tableRow;horizontal=0;startSize=0;swimlaneHead=0;swimlaneBody=0;fillColor=none;collapsible=0;dropTarget=0;points=[[0,0.5],[1,0.5]];portConstraint=eastwest;top=0;left=0;right=0;bottom=0;" vertex="1" parent="_8jmgSorLe9WMJBgY1ia-106">
          <mxGeometry y="60" width="180" height="30" as="geometry" />
        </mxCell>
        <mxCell id="_8jmgSorLe9WMJBgY1ia-111" value="" style="shape=partialRectangle;connectable=0;fillColor=none;top=0;left=0;bottom=0;right=0;editable=1;overflow=hidden;whiteSpace=wrap;html=1;" vertex="1" parent="_8jmgSorLe9WMJBgY1ia-110">
          <mxGeometry width="30" height="30" as="geometry">
            <mxRectangle width="30" height="30" as="alternateBounds" />
          </mxGeometry>
        </mxCell>
        <mxCell id="_8jmgSorLe9WMJBgY1ia-112" value="SectionName" style="shape=partialRectangle;connectable=0;fillColor=none;top=0;left=0;bottom=0;right=0;align=left;spacingLeft=6;overflow=hidden;whiteSpace=wrap;html=1;" vertex="1" parent="_8jmgSorLe9WMJBgY1ia-110">
          <mxGeometry x="30" width="150" height="30" as="geometry">
            <mxRectangle width="150" height="30" as="alternateBounds" />
          </mxGeometry>
        </mxCell>
        <mxCell id="_8jmgSorLe9WMJBgY1ia-125" value="IDENTIFIER" style="shape=table;startSize=30;container=1;collapsible=1;childLayout=tableLayout;fixedRows=1;rowLines=0;fontStyle=1;align=center;resizeLast=1;html=1;whiteSpace=wrap;" vertex="1" parent="1">
          <mxGeometry x="916" y="31" width="180" height="120" as="geometry" />
        </mxCell>
        <mxCell id="_8jmgSorLe9WMJBgY1ia-126" value="" style="shape=tableRow;horizontal=0;startSize=0;swimlaneHead=0;swimlaneBody=0;fillColor=none;collapsible=0;dropTarget=0;points=[[0,0.5],[1,0.5]];portConstraint=eastwest;top=0;left=0;right=0;bottom=0;html=1;" vertex="1" parent="_8jmgSorLe9WMJBgY1ia-125">
          <mxGeometry y="30" width="180" height="30" as="geometry" />
        </mxCell>
        <mxCell id="_8jmgSorLe9WMJBgY1ia-127" value="PK,FK1" style="shape=partialRectangle;connectable=0;fillColor=none;top=0;left=0;bottom=0;right=0;fontStyle=1;overflow=hidden;html=1;whiteSpace=wrap;" vertex="1" parent="_8jmgSorLe9WMJBgY1ia-126">
          <mxGeometry width="60" height="30" as="geometry">
            <mxRectangle width="60" height="30" as="alternateBounds" />
          </mxGeometry>
        </mxCell>
        <mxCell id="_8jmgSorLe9WMJBgY1ia-128" value="DepartmentID" style="shape=partialRectangle;connectable=0;fillColor=none;top=0;left=0;bottom=0;right=0;align=left;spacingLeft=6;fontStyle=5;overflow=hidden;html=1;whiteSpace=wrap;" vertex="1" parent="_8jmgSorLe9WMJBgY1ia-126">
          <mxGeometry x="60" width="120" height="30" as="geometry">
            <mxRectangle width="120" height="30" as="alternateBounds" />
          </mxGeometry>
        </mxCell>
        <mxCell id="_8jmgSorLe9WMJBgY1ia-129" value="" style="shape=tableRow;horizontal=0;startSize=0;swimlaneHead=0;swimlaneBody=0;fillColor=none;collapsible=0;dropTarget=0;points=[[0,0.5],[1,0.5]];portConstraint=eastwest;top=0;left=0;right=0;bottom=1;html=1;" vertex="1" parent="_8jmgSorLe9WMJBgY1ia-125">
          <mxGeometry y="60" width="180" height="30" as="geometry" />
        </mxCell>
        <mxCell id="_8jmgSorLe9WMJBgY1ia-130" value="PK,FK2" style="shape=partialRectangle;connectable=0;fillColor=none;top=0;left=0;bottom=0;right=0;fontStyle=1;overflow=hidden;html=1;whiteSpace=wrap;" vertex="1" parent="_8jmgSorLe9WMJBgY1ia-129">
          <mxGeometry width="60" height="30" as="geometry">
            <mxRectangle width="60" height="30" as="alternateBounds" />
          </mxGeometry>
        </mxCell>
        <mxCell id="_8jmgSorLe9WMJBgY1ia-131" value="SectionID" style="shape=partialRectangle;connectable=0;fillColor=none;top=0;left=0;bottom=0;right=0;align=left;spacingLeft=6;fontStyle=5;overflow=hidden;html=1;whiteSpace=wrap;" vertex="1" parent="_8jmgSorLe9WMJBgY1ia-129">
          <mxGeometry x="60" width="120" height="30" as="geometry">
            <mxRectangle width="120" height="30" as="alternateBounds" />
          </mxGeometry>
        </mxCell>
        <mxCell id="_8jmgSorLe9WMJBgY1ia-132" value="" style="shape=tableRow;horizontal=0;startSize=0;swimlaneHead=0;swimlaneBody=0;fillColor=none;collapsible=0;dropTarget=0;points=[[0,0.5],[1,0.5]];portConstraint=eastwest;top=0;left=0;right=0;bottom=0;html=1;" vertex="1" parent="_8jmgSorLe9WMJBgY1ia-125">
          <mxGeometry y="90" width="180" height="30" as="geometry" />
        </mxCell>
        <mxCell id="_8jmgSorLe9WMJBgY1ia-133" value="" style="shape=partialRectangle;connectable=0;fillColor=none;top=0;left=0;bottom=0;right=0;editable=1;overflow=hidden;html=1;whiteSpace=wrap;" vertex="1" parent="_8jmgSorLe9WMJBgY1ia-132">
          <mxGeometry width="60" height="30" as="geometry">
            <mxRectangle width="60" height="30" as="alternateBounds" />
          </mxGeometry>
        </mxCell>
        <mxCell id="_8jmgSorLe9WMJBgY1ia-134" value="Description" style="shape=partialRectangle;connectable=0;fillColor=none;top=0;left=0;bottom=0;right=0;align=left;spacingLeft=6;overflow=hidden;html=1;whiteSpace=wrap;" vertex="1" parent="_8jmgSorLe9WMJBgY1ia-132">
          <mxGeometry x="60" width="120" height="30" as="geometry">
            <mxRectangle width="120" height="30" as="alternateBounds" />
          </mxGeometry>
        </mxCell>
        <mxCell id="_8jmgSorLe9WMJBgY1ia-138" value="" style="edgeStyle=entityRelationEdgeStyle;fontSize=12;html=1;endArrow=ERmandOne;startArrow=ERzeroToMany;rounded=0;entryX=1.002;entryY=0.813;entryDx=0;entryDy=0;entryPerimeter=0;exitX=-0.004;exitY=0.82;exitDx=0;exitDy=0;exitPerimeter=0;startFill=0;endFill=0;" edge="1" parent="1" source="_8jmgSorLe9WMJBgY1ia-129" target="_8jmgSorLe9WMJBgY1ia-97">
          <mxGeometry width="100" height="100" relative="1" as="geometry">
            <mxPoint x="509" y="317" as="sourcePoint" />
            <mxPoint x="609" y="217" as="targetPoint" />
          </mxGeometry>
        </mxCell>
        <mxCell id="_8jmgSorLe9WMJBgY1ia-166" value="" style="edgeStyle=orthogonalEdgeStyle;fontSize=12;html=1;endArrow=ERzeroToMany;startArrow=ERmandOne;rounded=0;exitX=1;exitY=0.5;exitDx=0;exitDy=0;entryX=0.549;entryY=0.967;entryDx=0;entryDy=0;entryPerimeter=0;endFill=0;" edge="1" parent="1" source="_8jmgSorLe9WMJBgY1ia-110" target="_8jmgSorLe9WMJBgY1ia-132">
          <mxGeometry width="100" height="100" relative="1" as="geometry">
            <mxPoint x="825" y="232" as="sourcePoint" />
            <mxPoint x="1018.06" y="180.01" as="targetPoint" />
          </mxGeometry>
        </mxCell>
        <mxCell id="_8jmgSorLe9WMJBgY1ia-167" value="OFFICE" style="shape=table;startSize=30;container=1;collapsible=1;childLayout=tableLayout;fixedRows=1;rowLines=0;fontStyle=1;align=center;resizeLast=1;html=1;" vertex="1" parent="1">
          <mxGeometry x="663" y="441" width="180" height="90" as="geometry" />
        </mxCell>
        <mxCell id="_8jmgSorLe9WMJBgY1ia-168" value="" style="shape=tableRow;horizontal=0;startSize=0;swimlaneHead=0;swimlaneBody=0;fillColor=none;collapsible=0;dropTarget=0;points=[[0,0.5],[1,0.5]];portConstraint=eastwest;top=0;left=0;right=0;bottom=1;" vertex="1" parent="_8jmgSorLe9WMJBgY1ia-167">
          <mxGeometry y="30" width="180" height="30" as="geometry" />
        </mxCell>
        <mxCell id="_8jmgSorLe9WMJBgY1ia-169" value="PK" style="shape=partialRectangle;connectable=0;fillColor=none;top=0;left=0;bottom=0;right=0;fontStyle=1;overflow=hidden;whiteSpace=wrap;html=1;" vertex="1" parent="_8jmgSorLe9WMJBgY1ia-168">
          <mxGeometry width="30" height="30" as="geometry">
            <mxRectangle width="30" height="30" as="alternateBounds" />
          </mxGeometry>
        </mxCell>
        <mxCell id="_8jmgSorLe9WMJBgY1ia-170" value="OfficeID" style="shape=partialRectangle;connectable=0;fillColor=none;top=0;left=0;bottom=0;right=0;align=left;spacingLeft=6;fontStyle=5;overflow=hidden;whiteSpace=wrap;html=1;" vertex="1" parent="_8jmgSorLe9WMJBgY1ia-168">
          <mxGeometry x="30" width="150" height="30" as="geometry">
            <mxRectangle width="150" height="30" as="alternateBounds" />
          </mxGeometry>
        </mxCell>
        <mxCell id="_8jmgSorLe9WMJBgY1ia-171" value="" style="shape=tableRow;horizontal=0;startSize=0;swimlaneHead=0;swimlaneBody=0;fillColor=none;collapsible=0;dropTarget=0;points=[[0,0.5],[1,0.5]];portConstraint=eastwest;top=0;left=0;right=0;bottom=0;" vertex="1" parent="_8jmgSorLe9WMJBgY1ia-167">
          <mxGeometry y="60" width="180" height="30" as="geometry" />
        </mxCell>
        <mxCell id="_8jmgSorLe9WMJBgY1ia-172" value="" style="shape=partialRectangle;connectable=0;fillColor=none;top=0;left=0;bottom=0;right=0;editable=1;overflow=hidden;whiteSpace=wrap;html=1;" vertex="1" parent="_8jmgSorLe9WMJBgY1ia-171">
          <mxGeometry width="30" height="30" as="geometry">
            <mxRectangle width="30" height="30" as="alternateBounds" />
          </mxGeometry>
        </mxCell>
        <mxCell id="_8jmgSorLe9WMJBgY1ia-173" value="OfficeName" style="shape=partialRectangle;connectable=0;fillColor=none;top=0;left=0;bottom=0;right=0;align=left;spacingLeft=6;overflow=hidden;whiteSpace=wrap;html=1;" vertex="1" parent="_8jmgSorLe9WMJBgY1ia-171">
          <mxGeometry x="30" width="150" height="30" as="geometry">
            <mxRectangle width="150" height="30" as="alternateBounds" />
          </mxGeometry>
        </mxCell>
        <mxCell id="_8jmgSorLe9WMJBgY1ia-180" value="CATEGORY" style="shape=table;startSize=30;container=1;collapsible=1;childLayout=tableLayout;fixedRows=1;rowLines=0;fontStyle=1;align=center;resizeLast=1;html=1;" vertex="1" parent="1">
          <mxGeometry x="960" y="453" width="180" height="60" as="geometry" />
        </mxCell>
        <mxCell id="_8jmgSorLe9WMJBgY1ia-181" value="" style="shape=tableRow;horizontal=0;startSize=0;swimlaneHead=0;swimlaneBody=0;fillColor=none;collapsible=0;dropTarget=0;points=[[0,0.5],[1,0.5]];portConstraint=eastwest;top=0;left=0;right=0;bottom=1;" vertex="1" parent="_8jmgSorLe9WMJBgY1ia-180">
          <mxGeometry y="30" width="180" height="30" as="geometry" />
        </mxCell>
        <mxCell id="_8jmgSorLe9WMJBgY1ia-182" value="PK" style="shape=partialRectangle;connectable=0;fillColor=none;top=0;left=0;bottom=0;right=0;fontStyle=1;overflow=hidden;whiteSpace=wrap;html=1;" vertex="1" parent="_8jmgSorLe9WMJBgY1ia-181">
          <mxGeometry width="30" height="30" as="geometry">
            <mxRectangle width="30" height="30" as="alternateBounds" />
          </mxGeometry>
        </mxCell>
        <mxCell id="_8jmgSorLe9WMJBgY1ia-183" value="CategoryID" style="shape=partialRectangle;connectable=0;fillColor=none;top=0;left=0;bottom=0;right=0;align=left;spacingLeft=6;fontStyle=5;overflow=hidden;whiteSpace=wrap;html=1;" vertex="1" parent="_8jmgSorLe9WMJBgY1ia-181">
          <mxGeometry x="30" width="150" height="30" as="geometry">
            <mxRectangle width="150" height="30" as="alternateBounds" />
          </mxGeometry>
        </mxCell>
        <mxCell id="_8jmgSorLe9WMJBgY1ia-193" value="EQUIPMENT" style="shape=table;startSize=30;container=1;collapsible=1;childLayout=tableLayout;fixedRows=1;rowLines=0;fontStyle=1;align=center;resizeLast=1;html=1;whiteSpace=wrap;" vertex="1" parent="1">
          <mxGeometry x="796" y="662" width="180" height="94" as="geometry" />
        </mxCell>
        <mxCell id="_8jmgSorLe9WMJBgY1ia-194" value="" style="shape=tableRow;horizontal=0;startSize=0;swimlaneHead=0;swimlaneBody=0;fillColor=none;collapsible=0;dropTarget=0;points=[[0,0.5],[1,0.5]];portConstraint=eastwest;top=0;left=0;right=0;bottom=0;html=1;" vertex="1" parent="_8jmgSorLe9WMJBgY1ia-193">
          <mxGeometry y="30" width="180" height="30" as="geometry" />
        </mxCell>
        <mxCell id="_8jmgSorLe9WMJBgY1ia-195" value="PK,FK1" style="shape=partialRectangle;connectable=0;fillColor=none;top=0;left=0;bottom=0;right=0;fontStyle=1;overflow=hidden;html=1;whiteSpace=wrap;" vertex="1" parent="_8jmgSorLe9WMJBgY1ia-194">
          <mxGeometry width="60" height="30" as="geometry">
            <mxRectangle width="60" height="30" as="alternateBounds" />
          </mxGeometry>
        </mxCell>
        <mxCell id="_8jmgSorLe9WMJBgY1ia-196" value="OfficeID" style="shape=partialRectangle;connectable=0;fillColor=none;top=0;left=0;bottom=0;right=0;align=left;spacingLeft=6;fontStyle=5;overflow=hidden;html=1;whiteSpace=wrap;" vertex="1" parent="_8jmgSorLe9WMJBgY1ia-194">
          <mxGeometry x="60" width="120" height="30" as="geometry">
            <mxRectangle width="120" height="30" as="alternateBounds" />
          </mxGeometry>
        </mxCell>
        <mxCell id="_8jmgSorLe9WMJBgY1ia-197" value="" style="shape=tableRow;horizontal=0;startSize=0;swimlaneHead=0;swimlaneBody=0;fillColor=none;collapsible=0;dropTarget=0;points=[[0,0.5],[1,0.5]];portConstraint=eastwest;top=0;left=0;right=0;bottom=1;html=1;" vertex="1" parent="_8jmgSorLe9WMJBgY1ia-193">
          <mxGeometry y="60" width="180" height="34" as="geometry" />
        </mxCell>
        <mxCell id="_8jmgSorLe9WMJBgY1ia-198" value="PK,FK2" style="shape=partialRectangle;connectable=0;fillColor=none;top=0;left=0;bottom=0;right=0;fontStyle=1;overflow=hidden;html=1;whiteSpace=wrap;" vertex="1" parent="_8jmgSorLe9WMJBgY1ia-197">
          <mxGeometry width="60" height="34" as="geometry">
            <mxRectangle width="60" height="34" as="alternateBounds" />
          </mxGeometry>
        </mxCell>
        <mxCell id="_8jmgSorLe9WMJBgY1ia-199" value="CategoryID" style="shape=partialRectangle;connectable=0;fillColor=none;top=0;left=0;bottom=0;right=0;align=left;spacingLeft=6;fontStyle=5;overflow=hidden;html=1;whiteSpace=wrap;" vertex="1" parent="_8jmgSorLe9WMJBgY1ia-197">
          <mxGeometry x="60" width="120" height="34" as="geometry">
            <mxRectangle width="120" height="34" as="alternateBounds" />
          </mxGeometry>
        </mxCell>
        <mxCell id="_8jmgSorLe9WMJBgY1ia-213" value="" style="edgeStyle=orthogonalEdgeStyle;fontSize=12;html=1;endArrow=ERmandOne;startArrow=ERmany;rounded=0;entryX=0.456;entryY=1.007;entryDx=0;entryDy=0;entryPerimeter=0;exitX=1;exitY=0.5;exitDx=0;exitDy=0;endFill=0;startFill=0;" edge="1" parent="1" source="_8jmgSorLe9WMJBgY1ia-194" target="_8jmgSorLe9WMJBgY1ia-181">
          <mxGeometry width="100" height="100" relative="1" as="geometry">
            <mxPoint x="642" y="577" as="sourcePoint" />
            <mxPoint x="742" y="477" as="targetPoint" />
          </mxGeometry>
        </mxCell>
        <mxCell id="_8jmgSorLe9WMJBgY1ia-215" value="" style="edgeStyle=elbowEdgeStyle;fontSize=12;html=1;endArrow=ERzeroToMany;startArrow=ERmandOne;rounded=0;exitX=0.426;exitY=1.047;exitDx=0;exitDy=0;exitPerimeter=0;elbow=vertical;" edge="1" parent="1" source="_8jmgSorLe9WMJBgY1ia-171">
          <mxGeometry width="100" height="100" relative="1" as="geometry">
            <mxPoint x="642" y="577" as="sourcePoint" />
            <mxPoint x="851" y="659" as="targetPoint" />
          </mxGeometry>
        </mxCell>
        <mxCell id="_8jmgSorLe9WMJBgY1ia-217" value="" style="edgeStyle=orthogonalEdgeStyle;fontSize=12;html=1;endArrow=ERone;endFill=1;rounded=0;startArrow=ERmany;startFill=0;" edge="1" parent="1" source="_8jmgSorLe9WMJBgY1ia-167">
          <mxGeometry width="100" height="100" relative="1" as="geometry">
            <mxPoint x="752" y="437" as="sourcePoint" />
            <mxPoint x="741" y="332" as="targetPoint" />
          </mxGeometry>
        </mxCell>
      </root>
    </mxGraphModel>
  </diagram>
</mxfile>
